<svg viewBox="0 0 200 200" xmlns="http://www.w3.org/2000/svg">
  <!-- Guitar and Treble Clef Logo -->
  <g transform="translate(100,100)">
    <!-- Treble Clef -->
    <path d="M-60,-60 C-80,-60 -90,-40 -90,-20 C-90,0 -80,20 -60,20 C-50,20 -40,10 -40,0 C-40,-10 -50,-20 -60,-20 C-70,-20 -75,-15 -75,-10 C-75,-5 -70,0 -65,0 C-60,0 -55,-5 -55,-10 C-55,-30 -40,-50 -20,-60 C0,-70 20,-60 30,-40 C35,-30 35,-20 30,-10 C25,0 15,5 5,5 C-5,5 -15,0 -20,-10 C-25,-20 -25,-30 -20,-40 C-15,-50 -5,-55 5,-55 C15,-55 25,-50 30,-40" 
          fill="currentColor" 
          stroke="currentColor" 
          stroke-width="2"/>
    
    <!-- Guitar Body -->
    <ellipse cx="20" cy="10" rx="35" ry="45" fill="none" stroke="currentColor" stroke-width="3"/>
    
    <!-- Guitar Neck -->
    <rect x="45" y="-5" width="40" height="10" fill="currentColor"/>
    
    <!-- Guitar Head -->
    <rect x="80" y="-8" width="15" height="16" fill="currentColor"/>
    
    <!-- Tuning Pegs -->
    <circle cx="88" cy="-5" r="2" fill="currentColor"/>
    <circle cx="88" cy="-2" r="2" fill="currentColor"/>
    <circle cx="88" cy="1" r="2" fill="currentColor"/>
    <circle cx="88" cy="4" r="2" fill="currentColor"/>
    <circle cx="92" cy="-5" r="2" fill="currentColor"/>
    <circle cx="92" cy="-2" r="2" fill="currentColor"/>
    <circle cx="92" cy="1" r="2" fill="currentColor"/>
    <circle cx="92" cy="4" r="2" fill="currentColor"/>
    
    <!-- Guitar Strings -->
    <line x1="45" y1="-3" x2="80" y2="-3" stroke="currentColor" stroke-width="1"/>
    <line x1="45" y1="-1" x2="80" y2="-1" stroke="currentColor" stroke-width="1"/>
    <line x1="45" y1="1" x2="80" y2="1" stroke="currentColor" stroke-width="1"/>
    <line x1="45" y1="3" x2="80" y2="3" stroke="currentColor" stroke-width="1"/>
    
    <!-- Sound Hole -->
    <circle cx="20" cy="10" r="12" fill="none" stroke="currentColor" stroke-width="2"/>
    <circle cx="20" cy="10" r="8" fill="currentColor"/>
    
    <!-- Bridge -->
    <rect x="15" y="25" width="10" height="3" fill="currentColor"/>
  </g>
</svg>
